PathFileType	4	(X/Y/Z)	E:\Qualisys_Data\Carbon_Farble_Plate\Data\Amateur_Runner\S14\T1\S14T1V14_c3d.trc
DataRate	CameraRate	NumFrames	NumMarkers	Units	OrigDataRate	OrigDataStartFrame	OrigNumFrames
200.000000	200.000000	4	39	mm	200.000000	301	344
Frame#	Time	LSHO			RSHO			LICST			RICST			LASIS			LHEEL			RASIS			LTROC			RTROC			SACR			LTH1			LSK4			LTH2			LTH3			RHM5			LSK2			LTH4			RTH1			LTOE			RTH2			RTH3			RTH4			LLEP			RLEP			LSK1			LSK3			RSK1			LHM5			RSK2			LFT1			RSK3			RSK4			LLME			RLME			RTOE			RHEEL			RFT1			RFT2			LFT2			
		X1	Y1	Z1	X2	Y2	Z2	X3	Y3	Z3	X4	Y4	Z4	X5	Y5	Z5	X6	Y6	Z6	X7	Y7	Z7	X8	Y8	Z8	X9	Y9	Z9	X10	Y10	Z10	X11	Y11	Z11	X12	Y12	Z12	X13	Y13	Z13	X14	Y14	Z14	X15	Y15	Z15	X16	Y16	Z16	X17	Y17	Z17	X18	Y18	Z18	X19	Y19	Z19	X20	Y20	Z20	X21	Y21	Z21	X22	Y22	Z22	X23	Y23	Z23	X24	Y24	Z24	X25	Y25	Z25	X26	Y26	Z26	X27	Y27	Z27	X28	Y28	Z28	X29	Y29	Z29	X30	Y30	Z30	X31	Y31	Z31	X32	Y32	Z32	X33	Y33	Z33	X34	Y34	Z34	X35	Y35	Z35	X36	Y36	Z36	X37	Y37	Z37	X38	Y38	Z38	X39	Y39	Z39	

302	1.505	1984.939453125	1448.979248046875	-503.7605285644531	1951.743286132812	1457.367309570312	-208.2340240478516	1923.656494140625	1003.562133789062	-477.6100158691406	1944.3095703125	1012.862609863281	-200.9656677246094	1962.027465820312	951.5339965820312	-451.0124816894531	1468.696411132812	218.6289215087891	-352.5809020996094	1970.490844726562	969.2326049804688	-220.43896484375	1800.461669921875	898.1754760742188	-485.9399719238281	1834.439331054688	917.7160034179688	-165.5428161621094	1797.267456054688	1019.017395019531	-342.4505310058594	1826.010620117188	663.608154296875	-493.8472595214844	1590.12646484375	371.5735168457031	-435.7249755859375	1754.03271484375	682.6485595703125	-468.7977294921875	1812.186401367188	566.959716796875	-470.854248046875	2060.271240234375	86.02526092529297	-191.8871307373047	1646.96728515625	450.855224609375	-455.0368957519531	1736.37939453125	587.6278076171875	-450.2975158691406	2056.141357421875	726.9434814453125	-182.6227264404297	1633.360961914062	38.99125289916992	-394.1060485839844	1985.5849609375	696.2404174804688	-168.5187072753906	2096.17822265625	638.7608032226562	-212.0789947509766	2023.99169921875	603.42724609375	-187.7823486328125	1759.17626953125	508.6881408691406	-460.0081176757812	2064.05859375	546.2894897460938	-199.3337707519531	1713.760131835938	403.3495178222656	-460.1161499023438	1653.431396484375	322.101318359375	-445.1326599121094	2065.442138671875	422.2232360839844	-194.7227020263672	1565.319580078125	61.06862258911133	-447.3969116210938	1981.767578125	441.8359985351562	-184.3552398681641	1467.941650390625	195.1668853759766	-322.4360656738281	2033.502563476562	323.9456176757812	-205.2653350830078	1958.58251953125	348.4928283691406	-196.6048736572266	1519.532470703125	199.7799987792969	-416.1275939941406	1943.978881835938	170.5548095703125	-215.52490234375	2129.82666015625	79.7032470703125	-257.6919250488281	1879.41650390625	152.4133453369141	-266.5836791992188	1887.882568359375	120.8225708007812	-295.528564453125	1877.75341796875	130.7056732177734	-238.3182830810547	1448.379516601562	196.4265289306641	-374.2646179199219
303	1.51	2000.482788085938	1452.4833984375	-502.7601013183594	1965.330200195312	1460.186279296875	-207.9326629638672	1939.21533203125	1006.560668945312	-477.621337890625	1960.2626953125	1015.858215332031	-201.2880859375	1977.396606445312	954.5642700195312	-451.3445739746094	1478.5986328125	226.3360595703125	-354.9868774414062	1986.159545898438	972.2186889648438	-220.4169616699219	1815.25146484375	901.9890747070312	-486.3097839355469	1850.331787109375	921.0015869140624	-165.9254150390625	1813.299926757812	1021.767028808594	-342.2676086425781	1837.921020507812	667.6491088867188	-493.8259887695312	1599.043334960938	376.8616638183594	-436.5683288574219	1766.226806640625	687.58447265625	-468.2235717773438	1821.976318359375	571.3178100585938	-470.8767700195312	2092.396484375	86.31561279296875	-193.3878326416016	1656.14892578125	456.4768371582031	-455.5570678710938	1747.09912109375	592.6258544921875	-450.4566345214844	2070.113525390625	728.5735473632812	-183.3153076171875	1635.909545898438	37.85567092895508	-394.8212890625	1999.640747070312	698.7476806640625	-169.2673797607422	2109.609619140625	640.2684326171875	-212.3009643554688	2037.253784179688	605.2249755859375	-188.6590728759766	1768.919677734375	513.2781372070312	-460.4625244140625	2077.45068359375	547.7384033203125	-199.6377716064453	1722.445556640625	408.2885437011719	-460.7190246582031	1662.16259765625	326.7459411621094	-446.3646240234375	2082.798095703125	423.603759765625	-195.1034545898438	1569.501953125	63.559326171875	-448.0440979003906	1998.455932617188	440.0602416992188	-184.7313232421875	1476.834594726562	202.9132385253906	-324.5442810058594	2055.09130859375	323.9195556640625	-205.3986206054688	1979.504760742188	345.4782409667969	-196.828125	1528.413818359375	205.1257171630859	-418.3247985839844	1972.399536132812	166.2369079589844	-216.7638549804688	2162.686767578125	84.60258483886719	-258.6182861328125	1909.459594726562	145.2415618896484	-268.2018737792969	1919.310668945312	114.6712265014648	-297.6964111328125	1908.603881835938	123.3162689208984	-240.3709411621094	1457.888916015625	204.9276428222656	-376.8136291503906
304	1.515	2015.783935546875	1455.5048828125	-501.3398742675781	1978.826538085938	1462.689331054688	-207.3088226318359	1954.765380859375	1009.15966796875	-477.8783264160156	1974.911987304688	1018.726867675781	-201.3937225341797	1992.9013671875	957.2664794921876	-451.5311279296875	1488.8046875	233.8140869140625	-357.1855773925781	2001.932373046875	975.2950439453124	-220.9225006103516	1829.964111328125	905.1465454101562	-487.1025390625	1865.670288085938	923.7442626953124	-165.8708038330078	1828.8193359375	1024.469116210938	-342.4886169433594	1849.953247070312	671.4140014648438	-493.9744873046875	1607.93798828125	381.8873596191406	-437.4226379394531	1778.521728515625	691.969482421875	-468.1820373535156	1832.647094726562	575.3907470703125	-471.877197265625	2125.131103515625	87.91490936279297	-194.9859771728516	1665.683227539062	461.2616577148438	-455.572998046875	1758.115356445312	597.0245971679688	-450.7326354980469	2083.983154296875	729.5337524414062	-183.494140625	1638.996337890625	36.84341430664062	-395.0465698242188	2013.193969726562	700.4051513671875	-170.3045349121094	2123.055908203125	641.2330322265625	-212.2771911621094	2050.37890625	607.2582397460938	-188.9179992675781	1779.057006835938	517.8047485351562	-461.2392578125	2090.463134765625	548.8598022460938	-199.2485961914062	1732.076416015625	412.9808654785156	-461.7483215332031	1671.075317382812	331.690185546875	-448.0601501464844	2099.818359375	424.3995971679688	-194.6877746582031	1574.377807617188	66.39847564697266	-448.4786987304688	2015.015502929688	437.2715759277344	-185.3948059082031	1486.183471679688	210.8268890380859	-326.9225158691406	2076.633544921875	323.8621520996094	-205.9044647216797	1999.844482421875	342.0721740722656	-198.3815307617188	1537.030883789062	210.8042297363281	-420.8629760742188	2000.975219726562	161.6622924804688	-218.5572814941406	2195.001220703125	89.88773345947266	-259.4956359863281	1937.667724609375	137.3827362060547	-270.5038146972656	1950.744262695312	108.8840866088867	-300.170654296875	1939.439453125	116.2091827392578	-242.7225189208984	1467.167602539062	213.4055480957031	-379.1112365722656
305	1.52	2031.043334960938	1458.369140625	-500.1246032714844	1992.541137695312	1464.90869140625	-206.8429107666016	1970.4765625	1011.807800292969	-477.7036743164062	1990.947143554688	1021.183654785156	-202.0937042236328	2008.441650390625	959.5894775390624	-451.8901672363281	1498.414428710938	240.9911193847656	-360.1691284179688	2017.767700195312	977.5728759765624	-221.3167266845703	1844.715942382812	908.4143676757812	-487.3778991699219	1881.266479492188	926.22509765625	-166.4852752685547	1844.371826171875	1026.463989257812	-342.8242492675781	1861.72412109375	675.0919799804688	-495.1534423828125	1618.05224609375	386.9431457519531	-438.1117553710938	1790.789916992188	696.5619506835938	-468.2611083984375	1843.6181640625	578.6541137695312	-472.094970703125	2156.162841796875	89.13668060302734	-196.1596374511719	1675.954833984375	466.2219543457031	-455.9628295898438	1769.596313476562	601.53466796875	-450.8089294433594	2097.58544921875	730.8653564453125	-183.4131317138672	1641.968383789062	35.73229217529297	-395.6004638671875	2026.651245117188	702.21484375	-170.7401885986328	2136.4248046875	641.9231567382812	-212.2030639648438	2063.2783203125	608.2990112304688	-189.7729187011719	1789.551879882812	522.0067749023438	-461.4801940917969	2103.986328125	549.5650024414062	-199.7221374511719	1741.914184570312	417.7479553222656	-462.7760009765625	1680.231689453125	336.6734619140625	-449.1202087402344	2116.890625	425.1210632324219	-194.8066864013672	1579.266845703125	69.25405883789062	-448.9426879882812	2031.447509765625	434.7616882324219	-186.5542449951172	1495.6220703125	218.6089172363281	-329.1300964355469	2097.87060546875	323.6389770507812	-205.9711151123047	2020.250122070312	339.0631408691406	-198.5575866699219	1546.828735351562	215.6926422119141	-422.1787414550781	2029.233154296875	158.1480102539062	-220.2815093994141	2226.62353515625	95.90341186523438	-260.4815673828125	1968.025146484375	131.7339172363281	-273.3862915039062	1981.8837890625	103.6671829223633	-302.4200744628906	1969.671875	109.2065658569336	-245.4637298583984	1477.226318359375	222.0373840332031	-381.616943359375
